<svg width="530" height="371" viewBox="0 0 530 371" fill="none" xmlns="http://www.w3.org/2000/svg">
<path d="M467.681 361.324L458.821 361.324L454.606 327.15L467.682 327.15L467.681 361.324Z" fill="#FFB8B8"/>
<path d="M469.94 369.913L441.372 369.911V369.55C441.372 366.601 442.544 363.773 444.629 361.688C446.714 359.602 449.543 358.431 452.492 358.431H452.492L469.941 358.431L469.94 369.913Z" fill="#2F2E41"/>
<path d="M506.785 339.542L501.034 346.282L472.301 327.306L480.789 317.359L506.785 339.542Z" fill="#FFB8B8"/>
<path d="M514.785 343.398L496.241 365.13L495.966 364.895C493.723 362.981 492.332 360.254 492.099 357.314C491.866 354.374 492.811 351.462 494.725 349.219L494.725 349.218L506.051 335.945L514.785 343.398Z" fill="#2F2E41"/>
<path d="M404.771 193.261L402.013 218.696L513.502 217.106L464.881 137.883L425.183 136.457L404.771 193.261Z" fill="#2F2E41"/>
<path opacity="0.28" d="M404.771 193.261L402.013 218.696L513.502 217.106L464.881 137.883L425.183 136.457L404.771 193.261Z" fill="black"/>
<path d="M426.694 197.627L422.758 220.9V241.703L454.493 252.061C454.493 252.061 450.778 332.863 455.73 338.009L455.609 350.433L469.453 351.062L469.566 342.319L475.435 276.965L478.892 228.983L473.287 192.604L426.694 197.627Z" fill="#2F2E41"/>
<path d="M451.28 217.661L422.758 241.703C422.758 241.703 421.089 285.08 425.328 290.167C428.969 294.536 476.323 332.222 476.323 332.222C476.323 332.222 484.739 339.942 489.456 340.065C494.172 340.188 499.658 330.296 499.658 330.296L488.735 321.997C488.735 321.997 460.437 295.583 452.035 285.08C448.643 280.841 448.643 280.417 448.643 280.417L449.802 262.788L461.459 230.071L451.28 217.661Z" fill="#2F2E41"/>
<path d="M420.999 102.499L408.702 101.363L397.547 103.222L373.928 103.229L371.916 120.348L393.47 125.171L398.723 122.597L420.618 130.939L420.999 102.499Z" fill="#2F2E41"/>
<path d="M435.686 102.446C435.686 102.446 461.785 100 467.719 104.663C473.654 109.326 486.372 201.739 486.372 201.739L435.686 204.6L426.6 198.348L429.179 152.212L435.686 102.446Z" fill="#CCCCCC"/>
<path d="M443.653 101.87L414.864 102.502L388.024 223.782L409.22 228.446L443.653 101.87Z" fill="#2F2E41"/>
<path d="M464.118 100.845L486.795 107.942L485.507 157.773L513.502 217.348L480.592 220.815L454.578 156.485L464.118 100.845Z" fill="#2F2E41"/>
<path d="M501.512 223.4C502.307 222.7 502.939 221.834 503.364 220.864C503.788 219.893 503.994 218.842 503.968 217.783C503.942 216.724 503.684 215.684 503.212 214.736C502.74 213.787 502.067 212.954 501.238 212.294L505.8 196.379L496.805 191.248L490.678 213.813C489.662 215.279 489.218 217.066 489.432 218.837C489.646 220.607 490.501 222.237 491.837 223.419C493.173 224.601 494.895 225.252 496.678 225.248C498.462 225.244 500.182 224.587 501.512 223.4Z" fill="#FFB8B8"/>
<path d="M473.654 109.326L487.072 108.162C487.072 108.162 499.119 120.762 501.859 130.517C504.6 140.272 507.567 170.793 507.567 170.793L506.329 215.444L490.645 204.792L489.593 166.387L473.654 109.326Z" fill="#2F2E41"/>
<path d="M470.417 86.884C475.456 77.6664 472.068 66.1093 462.851 61.0706C453.633 56.0318 442.076 59.4194 437.037 68.6369C431.999 77.8545 435.386 89.4116 444.604 94.4504C453.821 99.4891 465.378 96.1015 470.417 86.884Z" fill="#FFB8B8"/>
<path d="M451.607 69.8197C449.111 69.243 446.52 69.882 443.993 70.2963C441.465 70.7105 438.68 70.8471 436.541 69.4368C434.962 68.3953 433.992 66.6722 433.08 65.0148C432.7 64.4229 432.446 63.7585 432.335 63.0637C432.228 61.8379 433.008 60.7195 433.836 59.8094C437.682 55.5816 443.303 53.2677 448.971 52.5326C453.645 51.836 458.421 52.4192 462.79 54.2202C467.093 56.1074 470.791 59.5632 472.483 63.9464C473.262 66.1898 473.749 68.5243 473.931 70.8921C474.186 72.6342 474.219 74.4018 474.028 76.1522C473.8 77.4499 473.459 78.725 473.009 79.9631L470.207 88.4243C470.005 89.2239 469.629 89.9688 469.105 90.6054C468.836 90.9172 468.473 91.1333 468.07 91.2215C467.668 91.3097 467.248 91.2651 466.873 91.0944C467.097 90.1754 467.131 89.2203 466.973 88.2876C466.885 87.8227 466.661 87.3948 466.327 87.0589C465.994 86.723 465.568 86.4945 465.104 86.4029C464.071 86.2933 463.189 87.094 462.209 87.4388C461.761 87.5717 461.291 87.615 460.826 87.5662C460.36 87.5174 459.91 87.3775 459.498 87.1544C459.087 86.9313 458.724 86.6295 458.43 86.2661C458.136 85.9027 457.916 85.4848 457.783 85.0364C457.756 84.946 457.733 84.8547 457.713 84.7624C457.558 83.795 457.818 82.7595 457.451 81.8511C457.022 80.7867 455.883 80.2291 455.027 79.4643C454.246 78.7436 453.687 77.815 453.416 76.7875C453.144 75.7601 453.172 74.6766 453.496 73.6644C453.725 72.9602 454.372 72.6401 454.242 71.8312C454.072 70.7699 452.508 70.0279 451.607 69.8197Z" fill="#2F2E41"/>
<path d="M240.138 140.223C240.138 145.746 235.661 150.223 230.138 150.223H9.99999C4.47714 150.223 0 145.746 0 140.223V10C0 4.47717 4.47715 0 10 0H230.138C235.661 0 240.138 4.47715 240.138 10V140.223Z" fill="white"/>
<path d="M210.806 348.288C210.806 353.811 206.329 358.289 200.806 358.289H83.741C78.2182 358.289 73.741 353.811 73.741 348.289V218.065C73.741 212.542 78.2182 208.065 83.741 208.065H200.806C206.329 208.065 210.806 212.542 210.806 218.065V348.288Z" fill="white"/>
<path d="M192.165 344.1H163.656V345.256H192.165V344.1Z" fill="#3F3D56"/>
<path d="M192.165 347.568H163.656V348.723H192.165V347.568Z" fill="#3F3D56"/>
<path d="M192.165 351.035H163.656V352.191H192.165V351.035Z" fill="#3F3D56"/>
<path d="M142.274 234.93V246.991C149.43 246.991 156.426 249.114 162.377 253.09C168.328 257.066 172.966 262.717 175.704 269.329C178.443 275.941 179.16 283.217 177.764 290.236C176.367 297.255 172.921 303.703 167.861 308.763L176.389 317.292C183.137 310.545 187.732 301.948 189.594 292.589C191.455 283.23 190.5 273.529 186.848 264.713C183.196 255.897 177.012 248.362 169.078 243.061C161.144 237.759 151.816 234.93 142.274 234.93Z" fill="#E6E6E6"/>
<path d="M176.389 317.292L167.86 308.763C161.674 314.951 153.454 318.687 144.725 319.279C135.995 319.871 127.346 317.279 120.381 311.983L113.081 321.589C122.369 328.648 133.901 332.103 145.541 331.313C157.18 330.523 168.14 325.542 176.389 317.292Z" fill="#575A89"/>
<path d="M106.088 283.177C106.088 278.425 107.024 273.719 108.843 269.329C110.661 264.939 113.327 260.95 116.687 257.59C120.047 254.23 124.036 251.564 128.426 249.746C132.816 247.927 137.522 246.991 142.274 246.991V234.93C132.174 234.93 122.328 238.099 114.126 243.992C105.923 249.884 99.7757 258.202 96.5514 267.774C93.327 277.345 93.1877 287.687 96.1532 297.342C99.1187 306.997 105.039 315.477 113.081 321.589L120.381 311.983C115.936 308.611 112.332 304.256 109.853 299.258C107.373 294.26 106.084 288.756 106.088 283.177Z" fill="#FEEFED"/>
<path d="M413.662 255.084C413.662 260.607 409.185 265.084 403.662 265.084H286.597C281.075 265.084 276.597 260.607 276.597 255.084V124.861C276.597 119.338 281.075 114.861 286.597 114.861H403.662C409.185 114.861 413.662 119.338 413.662 124.861V255.084Z" fill="white"/>
<path d="M321.007 206.694H296.335V246.169H321.007V206.694Z" fill="#575A89"/>
<path d="M356.644 179.83H331.972V246.169H356.644V179.83Z" fill="#E6E6E6"/>
<path d="M392.28 148.579H367.609V246.169H392.28V148.579Z" fill="#FEEFED"/>
<path d="M400.504 247.266H289.756V132.679H290.852V246.169H400.504V247.266Z" fill="#3F3D56"/>
<path d="M373.803 118.86C377.974 118.86 381.355 115.479 381.355 111.309C381.355 107.138 377.974 103.757 373.803 103.757C369.633 103.757 366.252 107.138 366.252 111.309C366.252 115.479 369.633 118.86 373.803 118.86Z" fill="#FFB8B8"/>
<path d="M528.961 370.642H411.287C411.12 370.642 410.96 370.576 410.842 370.458C410.724 370.34 410.658 370.18 410.658 370.013C410.658 369.846 410.724 369.686 410.842 369.568C410.96 369.45 411.12 369.383 411.287 369.383H528.961C529.128 369.383 529.288 369.45 529.406 369.568C529.524 369.686 529.59 369.846 529.59 370.013C529.59 370.18 529.524 370.34 529.406 370.458C529.288 370.576 529.128 370.642 528.961 370.642Z" fill="#CCCCCC"/>
<path d="M206.789 118.806H33.3495C33.2055 118.806 33.0675 118.749 32.9657 118.647C32.8639 118.545 32.8067 118.407 32.8067 118.263V35.1338C32.8067 34.9898 32.8639 34.8517 32.9657 34.75C33.0675 34.6482 33.2055 34.591 33.3495 34.591C33.4935 34.591 33.6315 34.6482 33.7333 34.75C33.8351 34.8517 33.8923 34.9898 33.8923 35.1338V117.72H206.789C206.86 117.72 206.931 117.734 206.997 117.761C207.063 117.788 207.123 117.828 207.174 117.879C207.224 117.929 207.264 117.989 207.292 118.055C207.319 118.121 207.333 118.192 207.333 118.263C207.333 118.335 207.319 118.405 207.292 118.471C207.264 118.537 207.224 118.597 207.174 118.648C207.123 118.698 207.063 118.738 206.997 118.765C206.931 118.792 206.86 118.806 206.789 118.806Z" fill="#3F3D56"/>
<path d="M70.4059 112.835H54.6309C54.2037 112.835 53.7942 112.665 53.4921 112.363C53.1901 112.061 53.0201 111.651 53.0196 111.224V89.4782C53.0201 89.0511 53.1901 88.6416 53.4921 88.3395C53.7942 88.0375 54.2037 87.8676 54.6309 87.8671H70.4059C70.833 87.8676 71.2426 88.0375 71.5446 88.3395C71.8467 88.6416 72.0166 89.0511 72.0171 89.4782V111.224C72.0166 111.651 71.8467 112.061 71.5446 112.363C71.2426 112.665 70.833 112.835 70.4059 112.835Z" fill="#FEEFED"/>
<path d="M99.1735 112.835H83.3985C82.9713 112.835 82.5618 112.665 82.2597 112.363C81.9577 112.061 81.7877 111.651 81.7872 111.224V68.8524C81.7877 68.4252 81.9577 68.0157 82.2597 67.7137C82.5618 67.4117 82.9713 67.2418 83.3985 67.2413H99.1735C99.6006 67.2418 100.01 67.4117 100.312 67.7137C100.614 68.0157 100.784 68.4252 100.785 68.8524V111.224C100.784 111.651 100.614 112.061 100.312 112.363C100.01 112.665 99.6006 112.835 99.1735 112.835Z" fill="#FEEFED"/>
<path d="M127.941 112.835H112.166C111.739 112.835 111.329 112.665 111.027 112.363C110.725 112.061 110.555 111.651 110.555 111.224V89.4782C110.555 89.0511 110.725 88.6416 111.027 88.3395C111.329 88.0375 111.739 87.8676 112.166 87.8671H127.941C128.368 87.8676 128.778 88.0375 129.08 88.3395C129.382 88.6416 129.552 89.0511 129.552 89.4782V111.224C129.552 111.651 129.382 112.061 129.08 112.363C128.778 112.665 128.368 112.835 127.941 112.835Z" fill="#FEEFED"/>
<path d="M156.709 112.835H140.934C140.516 112.844 140.112 112.687 139.81 112.399C139.508 112.111 139.333 111.715 139.323 111.297V60.6376C139.333 60.2202 139.508 59.824 139.81 59.5357C140.112 59.2474 140.516 59.0905 140.934 59.0995H156.709C157.126 59.0905 157.53 59.2474 157.832 59.5357C158.134 59.824 158.31 60.2202 158.32 60.6376V111.297C158.31 111.715 158.134 112.111 157.832 112.399C157.53 112.687 157.126 112.844 156.709 112.835Z" fill="#FEEFED"/>
<path d="M185.476 112.835H169.701C169.274 112.835 168.865 112.665 168.563 112.363C168.261 112.061 168.091 111.651 168.09 111.224V46.0554C168.091 45.6282 168.261 45.2187 168.563 44.9167C168.865 44.6146 169.274 44.4448 169.701 44.4443H185.476C185.904 44.4448 186.313 44.6146 186.615 44.9167C186.917 45.2187 187.087 45.6282 187.088 46.0554V111.224C187.087 111.651 186.917 112.061 186.615 112.363C186.313 112.665 185.904 112.835 185.476 112.835Z" fill="#FEEFED"/>
<path d="M62.5184 81.3537C64.317 81.3537 65.7751 79.8956 65.7751 78.097C65.7751 76.2984 64.317 74.8403 62.5184 74.8403C60.7197 74.8403 59.2617 76.2984 59.2617 78.097C59.2617 79.8956 60.7197 81.3537 62.5184 81.3537Z" fill="#3F3D56"/>
<path d="M91.286 60.1851C93.0846 60.1851 94.5427 58.727 94.5427 56.9284C94.5427 55.1298 93.0846 53.6717 91.286 53.6717C89.4873 53.6717 88.0293 55.1298 88.0293 56.9284C88.0293 58.727 89.4873 60.1851 91.286 60.1851Z" fill="#3F3D56"/>
<path d="M120.054 81.3537C121.852 81.3537 123.31 79.8956 123.31 78.097C123.31 76.2984 121.852 74.8403 120.054 74.8403C118.255 74.8403 116.797 76.2984 116.797 78.097C116.797 79.8956 118.255 81.3537 120.054 81.3537Z" fill="#3F3D56"/>
<path d="M148.821 49.8721C150.62 49.8721 152.078 48.4141 152.078 46.6154C152.078 44.8168 150.62 43.3587 148.821 43.3587C147.023 43.3587 145.565 44.8168 145.565 46.6154C145.565 48.4141 147.023 49.8721 148.821 49.8721Z" fill="#3F3D56"/>
<path d="M177.589 37.9308C179.388 37.9308 180.846 36.4728 180.846 34.6741C180.846 32.8755 179.388 31.4174 177.589 31.4174C175.79 31.4174 174.332 32.8755 174.332 34.6741C174.332 36.4728 175.79 37.9308 177.589 37.9308Z" fill="#3F3D56"/>
<path d="M120.122 78.8266L91.2862 57.228L62.8436 78.5314L62.193 77.6624L91.2862 55.8713L119.985 77.3673L148.504 46.1585L148.619 46.1119L177.386 34.5207L177.792 35.5282L149.138 47.0728L120.122 78.8266Z" fill="#3F3D56"/>
</svg>
